HIERARCHY
ROOT HipCenter
{
    OFFSET 0.0 0.0 -0.0
    CHANNELS 6 Xposition Yposition Zposition Zrotation Xrotation Yrotation
    JOINT Spine
    {
        OFFSET 0.0 12.034629821777344 0.0
        CHANNELS 3 Zrotation Xrotation Yrotation
        JOINT ShoulderCenter
        {
            OFFSET 0.0 31.423189163208008 0.0
            CHANNELS 3 Zrotation Xrotation Yrotation
            JOINT LeftShoulder
            {
                OFFSET 16.945829391479492 0.0 0.0
                CHANNELS 3 Zrotation Xrotation Yrotation
                JOINT LeftElbow
                {
                    OFFSET 30.426681518554688 0.0 0.0
                    CHANNELS 3 Zrotation Xrotation Yrotation
                    JOINT LeftWrist
                    {
                        OFFSET 26.31668472290039 0.0 0.0
                        CHANNELS 3 Zrotation Xrotation Yrotation
                        JOINT LeftHand
                        {
                            OFFSET 2.591684103012085 0.0 0.0
                            CHANNELS 3 Zrotation Xrotation Yrotation
                            End Site
                            {
                                OFFSET 1.036673665046692 0.0 0.0
                            }
                        }
                    }
                }
            }
            JOINT RightShoulder
            {
                OFFSET -16.945829391479492 0.0 0.0
                CHANNELS 3 Zrotation Xrotation Yrotation
                JOINT RightElbow
                {
                    OFFSET -30.426681518554688 0.0 0.0
                    CHANNELS 3 Zrotation Xrotation Yrotation
                    JOINT RightWrist
                    {
                        OFFSET -26.31668472290039 0.0 0.0
                        CHANNELS 3 Zrotation Xrotation Yrotation
                        JOINT RightHand
                        {
                            OFFSET -2.591684103012085 0.0 0.0
                            CHANNELS 3 Zrotation Xrotation Yrotation
                            End Site
                            {
                                OFFSET -1.036673665046692 0.0 0.0
                            }
                        }
                    }
                }
            }
            End Site
            {
                OFFSET 0.0 12.569276809692383 0.0
            }
        }
    }
    JOINT LeftHip
    {
        OFFSET 16.761558532714844 0.0 0.0
        CHANNELS 3 Zrotation Xrotation Yrotation
        JOINT LeftKnee
        {
            OFFSET 0.0 -35.00017547607422 0.0
            CHANNELS 3 Zrotation Xrotation Yrotation
            JOINT LeftAnkle
            {
                OFFSET 0.0 -41.17556381225586 0.0
                CHANNELS 3 Zrotation Xrotation Yrotation
                JOINT LeftFoot
                {
                    OFFSET 0.0 -12.279741287231445 0.0
                    CHANNELS 3 Zrotation Xrotation Yrotation
                    End Site
                    {
                        OFFSET 0.0 0.0 4.911896228790283
                    }
                }
            }
        }
    }
    JOINT RightHip
    {
        OFFSET -16.761558532714844 0.0 0.0
        CHANNELS 3 Zrotation Xrotation Yrotation
        JOINT RightKnee
        {
            OFFSET 0.0 -35.00017547607422 0.0
            CHANNELS 3 Zrotation Xrotation Yrotation
            JOINT RightAnkle
            {
                OFFSET 0.0 -41.17556381225586 0.0
                CHANNELS 3 Zrotation Xrotation Yrotation
                JOINT RightFoot
                {
                    OFFSET 0.0 -12.279741287231445 0.0
                    CHANNELS 3 Zrotation Xrotation Yrotation
                    End Site
                    {
                        OFFSET 0.0 0.0 4.911896228790283
                    }
                }
            }
        }
    }
}
MOTION
Frames: 6
Frame Time: 0.03333333333333333
30.19999885559082 -10.699999809265137 123.80000305175781 1.9091415287798057 2.3846211591425868 -79.10588536755994 0.34817231432135554 -1.2767010675590797 0.09658005106146271 -1.0489518082000191e-07 2.5260299891037684e-08 2.118077916380716 94.98085513891137 0.4683037106757076 174.13233112174638 -2.2295720195895227e-06 2.2407457596904857e-06 31.00936613281298 179.99996393909797 -79.26896798710638 -158.75200800888112 -5.466578358765419e-15 3.1805546814635168e-15 1.3914926731402888e-15 -99.91472080252778 21.9098232680363 -170.5884444414202 -3.727186731403706e-06 -5.655556612854702e-07 -23.709920249254182 179.9999536089967 -86.40973453889691 146.5265927075282 1.2722218725854067e-14 3.1805546814635168e-15 -3.531125038440127e-31 -2.162585694857104 -12.705827096579547 -9.270925154875332 1.4325258977480748 25.75745205546707 -20.41836426412228 74.1619026965404 -53.54907256047487 114.38218911673052 4.4139062980501586e-32 -1.5902773407317584e-15 3.1805546814635168e-15 5.2696018925504005 -10.947122841687067 11.822899219252475 -3.6726754692951196 22.841096358870466 14.248478282398361 -66.62115473808474 -66.05163272900748 -97.56529635102123 3.1805546814635176e-15 0.0 0.0
30.399999618530273 -10.699999809265137 123.80000305175781 2.385944008066949 2.859884512072632 -78.90606060500463 1.0365529472868922 -2.08322100754142 0.17009834356260564 -3.390717873886088e-08 1.5484748165061936e-07 1.327809424817173 94.56224931349544 -2.868495582413676 174.2657203936802 1.1274933941622707e-06 2.0612450364542576e-06 31.59211639339919 -179.99998088918227 -77.53445072401742 -160.07589412056487 3.4787316828507214e-15 -3.1805546814635168e-15 3.1805546814635168e-15 -100.78628722504256 26.169480176835386 -169.9612148365386 -3.5931599657971716e-06 -4.64696146585379e-06 -22.6896858605981 -179.99999325583155 -82.3313478318588 145.8297912645179 0.0 0.0 7.951386703658792e-15 -1.8761439355828995 -13.417270999726481 -9.392101332606215 1.4988177515002379 25.782321237177207 -20.475254900562717 74.17616667838752 -53.77786781307247 114.38493915770343 6.3611093629270335e-15 0.0 0.0 5.421230847714299 -11.650476018901765 12.080301392189979 -3.1310056231712378 22.904861436988792 14.193972771511786 -67.2311658748705 -65.12236632393044 -98.10291870654538 6.361109362927035e-15 3.531125038440127e-31 6.361109362927035e-15
30.599998474121094 -10.800000190734863 123.80000305175781 2.366238829661584 2.364232516330517 -78.72381018964222 0.401931057260588 -1.7551177045959567 0.13805567005538938 -1.293129449410699e-07 -7.893698505055787e-08 1.0065155274831266 94.80046997165726 -7.020391938796271 174.93564396042336 2.3761340402951302e-06 -3.5026018311740154e-06 32.32745867778002 -179.99999721907068 -79.24398755184099 -157.01690744115444 1.0933156717530838e-15 -4.362180833619883e-32 -4.572047354603805e-15 -101.04838505451167 27.61723464477603 -169.42465824997797 6.665017980666715e-07 8.402092693647411e-07 -22.503850534641494 179.99999530094405 -80.24093931314715 147.11837146367492 0.0 0.0 7.951386703658792e-16 -2.44771122216451 -13.487193909095188 -9.50912426391419 1.7035900362369802 25.800170629080426 -20.44999390052247 73.52802732483723 -54.35192811985528 113.41291702457276 -6.3611093629270335e-15 -1.5902773407317584e-15 3.1805546814635168e-15 5.027927798308632 -11.736023418088477 12.069198652629028 -3.20582203518953 22.96319180139177 13.961675117189246 -67.54285568933577 -65.7150998625022 -97.89152962126536 -3.1805546814635168e-15 -3.1805546814635168e-15 -4.770832022195275e-15
30.799999237060547 -10.699999809265137 123.69999694824219 2.862407219510376 2.8588690123665472 -78.57063930528676 0.7832507046463935 -2.340235557729821 0.1841031023762775 -8.564177585748406e-08 -4.3905840274908525e-08 0.4132720617240365 95.07560300849319 -9.560441632740007 175.3475609447572 -1.4416460385767609e-06 3.4670761541048617e-06 32.36987024291603 179.99990446637935 -86.13566707369858 -159.55840660054557 -1.5902773407317582e-15 1.5902773407317582e-15 -3.1805546814635164e-15 -101.2182515155084 27.13662789855187 -168.67539373592436 4.241900530860033e-07 -9.329618698294395e-08 -22.89141995846751 179.99998285122192 -76.66196462173093 151.00099242344558 -6.3611093629270335e-15 -3.1805546814635168e-15 -2.3854160110976376e-15 -2.1790856525500555 -14.385235608674463 -8.954427917353408 2.248679442792936 25.959429371207225 -21.037916254589327 73.09517576382153 -54.66444817621289 113.46331777598603 6.3611093629270335e-15 -1.5902773407317582e-15 3.1805546814635168e-15 5.357477722832198 -12.487764990943381 11.79008171512395 -3.0715122859955986 23.05000135416626 14.124424624953692 -67.98807894991496 -65.59294562192775 -98.57922089742692 3.1805546814635164e-15 -6.3611093629270335e-15 -6.3611093629270335e-15
31.0 -10.699999809265137 123.5 3.3384651166431665 3.332803345707289 -78.6308811120283 1.0506838376525276 -2.5093625851766945 0.19285003856550403 1.1867744338614687e-08 -8.746678066909436e-08 0.11624447487467554 95.74597613914251 -12.390315078915402 176.00558885721355 -2.951989800466388e-06 -3.91224722178238e-06 32.86975578121602 179.99996455115163 -84.81506402828734 -155.39595905775892 5.9635400277440935e-15 -1.5902773407317584e-15 -3.1805546814635164e-15 -101.1209342479748 24.68833251058607 -168.3950203674606 2.1272473590167974e-07 3.576587154118842e-06 -23.472403442967344 -179.99999311784782 -73.42848254573694 155.5147940801216 -1.6552148617688095e-32 -3.1805546814635164e-15 -5.963540027744093e-16 -1.6347847295878792 -14.981468185962827 -8.912444033799456 2.054690831355939 25.697236370146296 -20.692156013819236 73.26725019318255 -54.975915637133234 113.45061998876233 -6.3611093629270335e-15 -1.5902773407317584e-15 3.1805546814635168e-15 5.845323685540587 -13.379925445769121 11.854038093005734 -3.123604609359669 23.39752752812616 14.429566425098496 -67.72564397767414 -65.42647760577931 -98.41658677911374 0.0 0.0 0.0
31.200000762939453 -10.699999809265137 123.39999389648438 3.8140800605375667 3.8056666943895836 -78.4420216311046 1.3059658956635627 -2.6830594378179824 0.18086043301947616 3.931618189613556e-07 -3.2969298172602846e-07 -0.6301643780455868 96.50764074394803 -14.595776381657174 176.4367060456613 -6.824034222557886e-07 -4.878157191242501e-06 32.968876453612225 179.99996704737953 -81.89942519019286 -156.70479366577345 -9.54166404439055e-15 3.972515668245143e-31 -4.770832022195275e-15 -100.72719494341816 22.179095966786246 -168.25888403462332 1.066755075971974e-06 3.577659080134561e-06 -24.521415768924207 -179.9999977154927 -73.22753992731946 157.39727739461705 -4.4139062980501586e-32 3.1805546814635168e-15 1.5902773407317584e-15 -1.3651031978914416 -15.695507245190045 -8.696387747350265 2.4385607860611733 25.6638886625392 -20.711245572256235 73.430062813562 -55.56881709710171 113.56302103390529 -2.648343778830095e-31 -4.770832022195275e-15 -6.3611093629270335e-15 6.346273243936538 -14.01456738677225 11.612455662083892 -3.4412327920631998 23.229873688848638 14.577972594970584 -67.10323807744048 -65.37338200092479 -98.23071799832488 -9.54166404439055e-15 5.29668755766019e-31 -6.3611093629270335e-15
